<svg width="4096" height="2482" viewBox="0 0 4096 2482" fill="none" xmlns="http://www.w3.org/2000/svg">
<rect width="4096" height="2482" fill="white"/>
<path d="M3995.83 2295.53H98.1744C96.8007 2295.53 95.4846 2294.95 94.5147 2293.93C93.5447 2292.91 93 2291.53 93 2290.09C93 2288.66 93.5447 2287.28 94.5147 2286.26C95.4846 2285.24 96.8007 2284.66 98.1744 2284.66H3995.83C3997.2 2284.66 3998.52 2285.24 3999.49 2286.26C4000.46 2287.28 4001 2288.66 4001 2290.09C4001 2291.53 4000.46 2292.91 3999.49 2293.93C3998.52 2294.95 3997.2 2295.53 3995.83 2295.53Z" fill="#0B0C12"/>
<path d="M1279.71 448.212C1296.01 448.212 1309.23 434.997 1309.23 418.695C1309.23 402.393 1296.01 389.177 1279.71 389.177C1263.41 389.177 1250.19 402.393 1250.19 418.695C1250.19 434.997 1263.41 448.212 1279.71 448.212Z" fill="#F5F7FA"/>
<path d="M1162.07 448.212C1178.37 448.212 1191.58 434.997 1191.58 418.695C1191.58 402.393 1178.37 389.177 1162.07 389.177C1145.76 389.177 1132.55 402.393 1132.55 418.695C1132.55 434.997 1145.76 448.212 1162.07 448.212Z" fill="#F5F7FA"/>
<path d="M1044.42 448.212C1060.72 448.212 1073.94 434.997 1073.94 418.695C1073.94 402.393 1060.72 389.177 1044.42 389.177C1028.12 389.177 1014.9 402.393 1014.9 418.695C1014.9 434.997 1028.12 448.212 1044.42 448.212Z" fill="#F5F7FA"/>
<path d="M926.774 448.212C943.077 448.212 956.293 434.997 956.293 418.695C956.293 402.393 943.077 389.177 926.774 389.177C910.471 389.177 897.255 402.393 897.255 418.695C897.255 434.997 910.471 448.212 926.774 448.212Z" fill="#F5F7FA"/>
<path d="M1279.71 571.452C1296.01 571.452 1309.23 558.236 1309.23 541.934C1309.23 525.632 1296.01 512.417 1279.71 512.417C1263.41 512.417 1250.19 525.632 1250.19 541.934C1250.19 558.236 1263.41 571.452 1279.71 571.452Z" fill="#F5F7FA"/>
<path d="M1162.07 571.452C1178.37 571.452 1191.58 558.236 1191.58 541.934C1191.58 525.632 1178.37 512.417 1162.07 512.417C1145.76 512.417 1132.55 525.632 1132.55 541.934C1132.55 558.236 1145.76 571.452 1162.07 571.452Z" fill="#F5F7FA"/>
<path d="M1044.42 571.452C1060.72 571.452 1073.94 558.236 1073.94 541.934C1073.94 525.632 1060.72 512.417 1044.42 512.417C1028.12 512.417 1014.9 525.632 1014.9 541.934C1014.9 558.236 1028.12 571.452 1044.42 571.452Z" fill="#F5F7FA"/>
<path d="M926.774 571.452C943.077 571.452 956.293 558.236 956.293 541.934C956.293 525.632 943.077 512.417 926.774 512.417C910.471 512.417 897.255 525.632 897.255 541.934C897.255 558.236 910.471 571.452 926.774 571.452Z" fill="#F5F7FA"/>
<path d="M1279.71 694.691C1296.01 694.691 1309.23 681.475 1309.23 665.173C1309.23 648.871 1296.01 635.656 1279.71 635.656C1263.41 635.656 1250.19 648.871 1250.19 665.173C1250.19 681.475 1263.41 694.691 1279.71 694.691Z" fill="#F5F7FA"/>
<path d="M1162.07 694.691C1178.37 694.691 1191.58 681.475 1191.58 665.173C1191.58 648.871 1178.37 635.656 1162.07 635.656C1145.76 635.656 1132.55 648.871 1132.55 665.173C1132.55 681.475 1145.76 694.691 1162.07 694.691Z" fill="#F5F7FA"/>
<path d="M1044.42 694.691C1060.72 694.691 1073.94 681.475 1073.94 665.173C1073.94 648.871 1060.72 635.656 1044.42 635.656C1028.12 635.656 1014.9 648.871 1014.9 665.173C1014.9 681.475 1028.12 694.691 1044.42 694.691Z" fill="#F5F7FA"/>
<path d="M926.774 694.691C943.077 694.691 956.293 681.475 956.293 665.173C956.293 648.871 943.077 635.656 926.774 635.656C910.471 635.656 897.255 648.871 897.255 665.173C897.255 681.475 910.471 694.691 926.774 694.691Z" fill="#F5F7FA"/>
<path d="M1279.71 817.93C1296.01 817.93 1309.23 804.715 1309.23 788.413C1309.23 772.11 1296.01 758.895 1279.71 758.895C1263.41 758.895 1250.19 772.11 1250.19 788.413C1250.19 804.715 1263.41 817.93 1279.71 817.93Z" fill="#F5F7FA"/>
<path d="M1162.07 817.93C1178.37 817.93 1191.58 804.715 1191.58 788.413C1191.58 772.11 1178.37 758.895 1162.07 758.895C1145.76 758.895 1132.55 772.11 1132.55 788.413C1132.55 804.715 1145.76 817.93 1162.07 817.93Z" fill="#F5F7FA"/>
<path d="M1044.42 817.93C1060.72 817.93 1073.94 804.715 1073.94 788.413C1073.94 772.11 1060.72 758.895 1044.42 758.895C1028.12 758.895 1014.9 772.11 1014.9 788.413C1014.9 804.715 1028.12 817.93 1044.42 817.93Z" fill="#F5F7FA"/>
<path d="M926.774 817.93C943.077 817.93 956.293 804.715 956.293 788.413C956.293 772.11 943.077 758.895 926.774 758.895C910.471 758.895 897.255 772.11 897.255 788.413C897.255 804.715 910.471 817.93 926.774 817.93Z" fill="#F5F7FA"/>
<path d="M1279.71 941.169C1296.01 941.169 1309.23 927.954 1309.23 911.652C1309.23 895.35 1296.01 882.134 1279.71 882.134C1263.41 882.134 1250.19 895.35 1250.19 911.652C1250.19 927.954 1263.41 941.169 1279.71 941.169Z" fill="#F5F7FA"/>
<path d="M1162.07 941.169C1178.37 941.169 1191.58 927.954 1191.58 911.652C1191.58 895.35 1178.37 882.134 1162.07 882.134C1145.76 882.134 1132.55 895.35 1132.55 911.652C1132.55 927.954 1145.76 941.169 1162.07 941.169Z" fill="#F5F7FA"/>
<path d="M1044.42 941.169C1060.72 941.169 1073.94 927.954 1073.94 911.652C1073.94 895.35 1060.72 882.134 1044.42 882.134C1028.12 882.134 1014.9 895.35 1014.9 911.652C1014.9 927.954 1028.12 941.169 1044.42 941.169Z" fill="#F5F7FA"/>
<path d="M926.774 941.169C943.077 941.169 956.293 927.954 956.293 911.652C956.293 895.35 943.077 882.134 926.774 882.134C910.471 882.134 897.255 895.35 897.255 911.652C897.255 927.954 910.471 941.169 926.774 941.169Z" fill="#F5F7FA"/>
<path d="M1279.71 1064.41C1296.01 1064.41 1309.23 1051.19 1309.23 1034.89C1309.23 1018.59 1296.01 1005.37 1279.71 1005.37C1263.41 1005.37 1250.19 1018.59 1250.19 1034.89C1250.19 1051.19 1263.41 1064.41 1279.71 1064.41Z" fill="#F5F7FA"/>
<path d="M1162.07 1064.41C1178.37 1064.41 1191.58 1051.19 1191.58 1034.89C1191.58 1018.59 1178.37 1005.37 1162.07 1005.37C1145.76 1005.37 1132.55 1018.59 1132.55 1034.89C1132.55 1051.19 1145.76 1064.41 1162.07 1064.41Z" fill="#F5F7FA"/>
<path d="M1044.42 1064.41C1060.72 1064.41 1073.94 1051.19 1073.94 1034.89C1073.94 1018.59 1060.72 1005.37 1044.42 1005.37C1028.12 1005.37 1014.9 1018.59 1014.9 1034.89C1014.9 1051.19 1028.12 1064.41 1044.42 1064.41Z" fill="#F5F7FA"/>
<path d="M926.774 1064.41C943.077 1064.41 956.293 1051.19 956.293 1034.89C956.293 1018.59 943.077 1005.37 926.774 1005.37C910.471 1005.37 897.255 1018.59 897.255 1034.89C897.255 1051.19 910.471 1064.41 926.774 1064.41Z" fill="#F5F7FA"/>
<path d="M1020.33 1840.14V1849.27C1020.34 1864.4 1026.35 1878.91 1037.05 1889.6C1047.75 1900.3 1062.25 1906.31 1077.38 1906.33H1488.2C1503.33 1906.32 1517.84 1900.31 1528.54 1889.61C1539.24 1878.91 1545.25 1864.4 1545.26 1849.27V1840.14C1545.29 1826.79 1540.6 1813.86 1532.02 1803.63C1529.17 1800.23 1525.93 1797.17 1522.39 1794.5C1522.39 1794.5 1296.53 1789.39 1296.53 1783.09H1077.38C1062.26 1783.11 1047.76 1789.13 1037.06 1799.82C1026.36 1810.52 1020.35 1825.02 1020.33 1840.14V1840.14Z" fill="#B2B8BF"/>
<path d="M1315.77 1904.06H1256.42V2287.47H1315.77V1904.06Z" fill="#B2B8BF"/>
<path d="M1484.66 2285.39C1484.66 2291.8 1394.74 2287.87 1283.81 2287.87C1172.89 2287.87 1082.97 2291.8 1082.97 2285.39C1082.97 2278.98 1172.89 2228.13 1283.81 2228.13C1394.74 2228.13 1484.66 2278.98 1484.66 2285.39Z" fill="#B2B8BF"/>
<path d="M1403.07 1832.4C1407.36 1826.65 1410.33 1820.04 1411.78 1813.01C1413.23 1805.99 1413.12 1798.74 1411.46 1791.77C1409.81 1784.79 1406.64 1778.27 1402.19 1772.65C1397.74 1767.03 1392.11 1762.46 1385.69 1759.25L1259.93 1330.72L1164.16 1377.62L1317.9 1784.1C1313.22 1795.23 1312.79 1807.69 1316.69 1819.11C1320.58 1830.53 1328.53 1840.13 1339.03 1846.08C1349.53 1852.04 1361.85 1853.93 1373.65 1851.41C1385.46 1848.89 1395.92 1842.12 1403.07 1832.4L1403.07 1832.4Z" fill="#A0616A"/>
<path d="M1288.42 1402.28L1181.23 1431.3C1178.18 1432.12 1174.99 1432.28 1171.87 1431.76C1168.75 1431.24 1165.79 1430.06 1163.17 1428.29C1160.55 1426.52 1158.35 1424.21 1156.7 1421.51C1155.06 1418.81 1154.02 1415.79 1153.65 1412.65L1140.69 1302.7C1136.56 1287.08 1138.79 1270.45 1146.9 1256.46C1155 1242.48 1168.32 1232.28 1183.94 1228.1C1199.56 1223.92 1216.19 1226.11 1230.2 1234.18C1244.21 1242.24 1254.45 1255.54 1258.67 1271.14L1302.83 1372.27C1304.09 1375.16 1304.71 1378.3 1304.66 1381.46C1304.6 1384.62 1303.86 1387.73 1302.5 1390.57C1301.13 1393.42 1299.16 1395.94 1296.73 1397.96C1294.3 1399.98 1291.47 1401.46 1288.42 1402.28H1288.42Z" fill="#6C63FF"/>
<path d="M1431.09 2240.45L1487.05 2240.44L1513.68 2095.31H1431.08L1431.09 2240.45Z" fill="#A0616A"/>
<path d="M1416.81 2222.18L1527.02 2222.17H1527.02C1536.25 2222.17 1545.38 2223.99 1553.9 2227.52C1562.42 2231.05 1570.17 2236.22 1576.69 2242.74C1583.21 2249.26 1588.38 2257.01 1591.91 2265.53C1595.44 2274.05 1597.26 2283.18 1597.26 2292.4V2294.68L1416.82 2294.69L1416.81 2222.18Z" fill="#0B0C12"/>
<path d="M1496.04 2162.62C1495.39 2162.62 1494.74 2162.59 1494.08 2162.53L1416.63 2156.89C1413.5 2156.6 1410.48 2155.59 1407.8 2153.95C1405.12 2152.3 1402.85 2150.07 1401.17 2147.41C1399.49 2144.75 1398.44 2141.74 1398.11 2138.61C1397.77 2135.48 1398.16 2132.32 1399.25 2129.37L1502.89 1896.52C1503.63 1894.44 1503.94 1892.23 1503.78 1890.04C1503.63 1887.84 1503.02 1885.69 1502 1883.74C1500.98 1881.77 1499.55 1880.03 1497.81 1878.64C1496.07 1877.26 1494.06 1876.26 1491.9 1875.71C1443.17 1862.97 1318.12 1829.05 1209.87 1789.36C1163.5 1772.35 1134.29 1747.78 1123.06 1716.32C1108.25 1674.84 1130.15 1637.02 1131.09 1635.43L1131.83 1634.19L1233.69 1643.45L1344.11 1652.84L1586.1 1782.59C1606.37 1793.56 1621.78 1811.76 1629.24 1833.57C1636.7 1855.38 1635.67 1879.2 1626.35 1900.28L1514.79 2150.45C1513.17 2154.07 1510.54 2157.15 1507.22 2159.31C1503.89 2161.47 1500.01 2162.62 1496.04 2162.62V2162.62Z" fill="#242833"/>
<path d="M1251.4 1182.76C1313.32 1182.76 1363.51 1132.57 1363.51 1070.66C1363.51 1008.74 1313.32 958.55 1251.4 958.55C1189.48 958.55 1139.29 1008.74 1139.29 1070.66C1139.29 1132.57 1189.48 1182.76 1251.4 1182.76Z" fill="#A0616A"/>
<path d="M1399.14 2235.88L1455.1 2235.88L1481.72 2090.75H1399.13L1399.14 2235.88Z" fill="#A0616A"/>
<path d="M1384.86 2217.61L1495.07 2217.61H1495.07C1504.3 2217.61 1513.43 2219.42 1521.95 2222.95C1530.47 2226.48 1538.21 2231.66 1544.73 2238.18C1551.26 2244.7 1556.43 2252.44 1559.96 2260.96C1563.49 2269.48 1565.31 2278.61 1565.31 2287.84V2290.12L1384.86 2290.13L1384.86 2217.61Z" fill="#0B0C12"/>
<path d="M1464.09 2176.31C1463.44 2176.31 1462.79 2176.28 1462.13 2176.22L1384.68 2170.58C1381.55 2170.29 1378.53 2169.29 1375.84 2167.64C1373.16 2166 1370.89 2163.76 1369.21 2161.1C1367.53 2158.44 1366.49 2155.43 1366.15 2152.3C1365.82 2149.18 1366.21 2146.02 1367.29 2143.06L1470.94 1910.21C1471.68 1908.13 1471.98 1905.93 1471.83 1903.73C1471.68 1901.53 1471.07 1899.39 1470.04 1897.43C1469.02 1895.46 1467.6 1893.72 1465.86 1892.34C1464.12 1890.95 1462.11 1889.95 1459.95 1889.4C1411.21 1876.66 1286.17 1842.74 1177.92 1803.05C1131.54 1786.05 1102.33 1761.47 1091.1 1730.01C1076.3 1688.54 1098.2 1650.71 1099.14 1649.12L1099.88 1647.88L1201.73 1657.14L1312.16 1666.53L1554.15 1796.29C1574.42 1807.25 1589.82 1825.45 1597.28 1847.26C1604.74 1869.07 1603.71 1892.89 1594.4 1913.98L1482.83 2164.14C1481.22 2167.76 1478.59 2170.84 1475.27 2173C1471.94 2175.16 1468.06 2176.31 1464.09 2176.31V2176.31Z" fill="#242833"/>
<path d="M1285.97 1246.33L1167.29 1205.25C1167.29 1205.25 1092.79 1262.49 1128.58 1404.48C1147.27 1477.76 1141.82 1555.1 1113.06 1625.04C1109.6 1633.69 1105.6 1642.12 1101.11 1650.28C1101.11 1650.28 1233.48 1810.04 1356.73 1691.36L1308.8 1460.86C1308.8 1460.86 1384.11 1307.95 1285.97 1246.33Z" fill="#242833"/>
<path d="M1265.32 1186.58C1249.36 1162.69 1236.77 1129.58 1254.34 1106.85C1271.68 1084.42 1305.88 1087.73 1332.44 1077.8C1369.43 1063.98 1390.89 1020.52 1384.19 981.605C1377.5 942.687 1346.26 910.426 1309.04 897.225C1271.82 884.025 1229.85 888.318 1193.41 903.519C1148.54 922.232 1110.05 958.43 1093.91 1004.28C1077.77 1050.14 1086.4 1105.19 1119.88 1140.44C1155.78 1178.22 1212.11 1188.29 1264.23 1187.68" fill="#0B0C12"/>
<path d="M1161.03 982.854C1140.92 999.221 1110.25 991.952 1088.66 977.587C1067.08 963.223 1049.57 942.769 1026.21 931.506C985.045 911.651 935.269 924.85 895.201 946.843C855.133 968.836 819.615 999.22 777.291 1016.48C734.967 1033.74 680.959 1034.59 648.911 1002C641.025 1024.85 640.38 1049.58 647.065 1072.8C653.75 1096.03 667.44 1116.63 686.266 1131.8C705.092 1146.96 728.137 1155.94 752.258 1157.52C776.379 1159.1 800.4 1153.2 821.044 1140.63C867.418 1112.38 893.033 1053.16 945.047 1037.57C973.829 1028.94 1004.74 1035.89 1033.83 1043.42C1062.92 1050.94 1093.25 1059.07 1122.6 1052.67C1151.96 1046.26 1179.42 1019.88 1175.68 990.067L1161.03 982.854Z" fill="#0B0C12"/>
<path d="M1525.99 2039.18C1514.12 1962.08 1514.12 1883.61 1525.99 1806.51C1526.74 1801.92 1529.1 1797.75 1532.64 1794.73C1536.18 1791.72 1540.68 1790.06 1545.33 1790.05H1727.33C1730.28 1790.04 1733.2 1790.71 1735.85 1791.99C1738.5 1793.28 1740.83 1795.15 1742.65 1797.48C1744.51 1799.83 1745.81 1802.57 1746.45 1805.5C1747.08 1808.43 1747.05 1811.47 1746.33 1814.38C1729.31 1885.69 1729.31 1960 1746.33 2031.31C1747.05 2034.22 1747.08 2037.26 1746.45 2040.19C1745.81 2043.12 1744.51 2045.87 1742.65 2048.22C1740.83 2050.54 1738.5 2052.41 1735.85 2053.7C1733.2 2054.99 1730.28 2055.65 1727.33 2055.64H1545.33C1540.68 2055.63 1536.18 2053.97 1532.64 2050.96C1529.1 2047.94 1526.74 2043.77 1525.99 2039.18V2039.18Z" fill="#18A0FB"/>
<path d="M1671.32 1902.69H1575.82C1572.19 1902.68 1568.7 1901.24 1566.14 1898.67C1563.57 1896.1 1562.13 1892.62 1562.12 1888.99V1883.64C1562.13 1880.01 1563.57 1876.53 1566.14 1873.97C1568.7 1871.4 1572.19 1869.95 1575.82 1869.95H1671.32C1674.96 1869.95 1678.44 1871.4 1681 1873.97C1683.57 1876.53 1685.01 1880.01 1685.02 1883.64V1888.99C1685.01 1892.62 1683.57 1896.1 1681 1898.67C1678.44 1901.24 1674.96 1902.68 1671.32 1902.69Z" fill="white"/>
<path d="M1671.32 1959.03H1575.82C1572.19 1959.03 1568.7 1957.58 1566.14 1955.02C1563.57 1952.45 1562.13 1948.97 1562.12 1945.34V1939.99C1562.13 1936.36 1563.57 1932.88 1566.14 1930.31C1568.7 1927.74 1572.19 1926.3 1575.82 1926.29H1671.32C1674.96 1926.3 1678.44 1927.74 1681 1930.31C1683.57 1932.88 1685.01 1936.36 1685.02 1939.99V1945.34C1685.01 1948.97 1683.57 1952.45 1681 1955.02C1678.44 1957.58 1674.96 1959.03 1671.32 1959.03Z" fill="white"/>
<path d="M1573.85 1811.86C1576.56 1805.23 1577.79 1798.08 1577.44 1790.92C1577.08 1783.76 1575.17 1776.76 1571.82 1770.42C1568.47 1764.08 1563.78 1758.56 1558.06 1754.23C1552.35 1749.9 1545.76 1746.88 1538.75 1745.37L1309.9 1361.85L1228.88 1431.19L1479.31 1786.38C1477.56 1798.32 1480.26 1810.49 1486.88 1820.58C1493.51 1830.66 1503.61 1837.97 1515.26 1841.11C1526.91 1844.25 1539.31 1843.01 1550.11 1837.62C1560.91 1832.23 1569.36 1823.07 1573.85 1811.86L1573.85 1811.86Z" fill="#A0616A"/>
<path d="M1355.37 1424.03L1258.82 1478.9C1256.08 1480.46 1253.03 1481.42 1249.88 1481.69C1246.73 1481.97 1243.56 1481.56 1240.59 1480.5C1237.61 1479.44 1234.9 1477.75 1232.63 1475.55C1230.37 1473.35 1228.6 1470.68 1227.46 1467.74L1187.44 1364.52C1179.54 1350.42 1177.54 1333.76 1181.9 1318.19C1186.26 1302.63 1196.61 1289.42 1210.68 1281.48C1224.76 1273.53 1241.41 1271.49 1256.99 1275.8C1272.57 1280.11 1285.81 1290.43 1293.79 1304.48L1361.82 1391.37C1363.76 1393.86 1365.15 1396.73 1365.89 1399.81C1366.62 1402.88 1366.68 1406.08 1366.07 1409.18C1365.46 1412.28 1364.18 1415.21 1362.34 1417.77C1360.49 1420.33 1358.11 1422.47 1355.37 1424.03V1424.03Z" fill="#242833"/>
<path d="M2382.59 1558.75H529.349C521.48 1558.75 513.933 1561.87 508.369 1567.44C502.804 1573 499.679 1580.55 499.679 1588.41C499.679 1596.28 502.804 1603.83 508.369 1609.39C513.933 1614.96 521.48 1618.08 529.349 1618.08H581.842V2263.95C581.842 2271.82 584.968 2279.36 590.532 2284.93C596.096 2290.49 603.643 2293.62 611.512 2293.62C619.381 2293.62 626.928 2290.49 632.492 2284.93C638.057 2279.36 641.182 2271.82 641.182 2263.95V1675.09L973.813 2277.95C977.756 2284.75 984.235 2289.71 991.828 2291.73C999.421 2293.76 1007.51 2292.69 1014.31 2288.76C1021.12 2284.83 1026.09 2278.36 1028.13 2270.77C1030.17 2263.18 1029.12 2255.1 1025.2 2248.28L677.488 1618.08H2266.19V1618.47L1918.69 2248.28C1914.76 2255.1 1913.69 2263.19 1915.73 2270.8C1917.77 2278.4 1922.74 2284.88 1929.55 2288.81C1936.37 2292.74 1944.46 2293.81 1952.07 2291.77C1959.67 2289.74 1966.15 2284.77 1970.08 2277.95L2266.19 1741.28V2263.95C2266.19 2271.82 2269.32 2279.36 2274.88 2284.93C2280.45 2290.49 2288 2293.62 2295.86 2293.62C2303.73 2293.62 2311.28 2290.49 2316.84 2284.93C2322.41 2279.36 2325.53 2271.82 2325.53 2263.95V1633.73L2334.17 1618.08H2382.59C2390.46 1618.08 2398.01 1614.96 2403.57 1609.39C2409.14 1603.83 2412.26 1596.28 2412.26 1588.41C2412.26 1580.55 2409.14 1573 2403.57 1567.44C2398.01 1561.87 2390.46 1558.75 2382.59 1558.75V1558.75Z" fill="#0B0C12"/>
<path d="M1615.73 1540.49H1255.13C1246.3 1540.49 1239.15 1547.64 1239.15 1556.46C1239.15 1565.29 1246.3 1572.44 1255.13 1572.44H1615.73C1624.56 1572.44 1631.71 1565.29 1631.71 1556.46C1631.71 1547.64 1624.56 1540.49 1615.73 1540.49Z" fill="#B2B8BF"/>
<path d="M1857.66 1572.44H1451.41C1443.54 1572.43 1436 1569.3 1430.44 1563.74C1424.87 1558.18 1421.74 1550.64 1421.74 1542.77V1319.11C1421.74 1311.25 1424.87 1303.71 1430.44 1298.14C1436 1292.58 1443.54 1289.45 1451.41 1289.45H1857.66C1865.53 1289.45 1873.07 1292.58 1878.63 1298.14C1884.19 1303.71 1887.32 1311.25 1887.33 1319.11V1542.77C1887.32 1550.64 1884.19 1558.18 1878.63 1563.74C1873.07 1569.3 1865.53 1572.43 1857.66 1572.44V1572.44Z" fill="#B2B8BF"/>
<path d="M1654.53 1458.33C1669.66 1458.33 1681.92 1446.07 1681.92 1430.94C1681.92 1415.82 1669.66 1403.56 1654.53 1403.56C1639.41 1403.56 1627.14 1415.82 1627.14 1430.94C1627.14 1446.07 1639.41 1458.33 1654.53 1458.33Z" fill="white"/>
<path d="M2167.69 1021.39V220.331C2167.7 211.229 2171.32 202.503 2177.76 196.067C2184.2 189.631 2192.92 186.01 2202.02 186H2835.27C2844.37 186.01 2853.1 189.631 2859.54 196.067C2865.97 202.503 2869.59 211.229 2869.6 220.331V1021.39C2869.59 1030.49 2865.97 1039.21 2859.54 1045.65C2853.1 1052.09 2844.37 1055.71 2835.27 1055.72H2202.02C2192.92 1055.71 2184.2 1052.09 2177.76 1045.65C2171.32 1039.21 2167.7 1030.49 2167.69 1021.39V1021.39ZM2202.02 193.629C2194.95 193.637 2188.16 196.453 2183.15 201.459C2178.15 206.465 2175.33 213.252 2175.32 220.331V1021.39C2175.33 1028.47 2178.15 1035.25 2183.15 1040.26C2188.16 1045.26 2194.95 1048.08 2202.02 1048.09H2835.27C2842.35 1048.08 2849.14 1045.26 2854.14 1040.26C2859.15 1035.25 2861.97 1028.47 2861.97 1021.39V220.331C2861.97 213.252 2859.15 206.465 2854.14 201.459C2849.14 196.453 2842.35 193.637 2835.27 193.629H2202.02Z" fill="#CED3D9"/>
<path d="M2554.16 553.882V389.4C2554.16 384.849 2555.97 380.486 2559.19 377.268C2562.41 374.049 2566.77 372.239 2571.32 372.234H2710.72C2715.27 372.239 2719.63 374.049 2722.85 377.268C2726.07 380.486 2727.88 384.849 2727.88 389.4V553.882C2727.88 558.433 2726.07 562.796 2722.85 566.014C2719.63 569.232 2715.27 571.042 2710.72 571.047H2571.32C2566.77 571.042 2562.41 569.232 2559.19 566.014C2555.97 562.796 2554.16 558.433 2554.16 553.882V553.882Z" fill="#18A0FB"/>
<path d="M2283.31 630.172V465.69C2283.32 461.139 2285.13 456.776 2288.35 453.558C2291.56 450.34 2295.93 448.53 2300.48 448.525H2439.87C2444.42 448.53 2448.78 450.34 2452 453.558C2455.22 456.776 2457.03 461.139 2457.03 465.69V630.172C2457.03 634.723 2455.22 639.087 2452 642.305C2448.78 645.523 2444.42 647.333 2439.87 647.338H2300.48C2295.93 647.333 2291.56 645.523 2288.35 642.305C2285.13 639.087 2283.32 634.723 2283.31 630.172V630.172Z" fill="#CED3D9"/>
<path d="M2500.75 862.86V698.378C2500.76 693.827 2502.57 689.464 2505.79 686.246C2509 683.028 2513.37 681.217 2517.92 681.212H2657.31C2661.86 681.217 2666.22 683.028 2669.44 686.246C2672.66 689.464 2674.47 693.827 2674.48 698.378V862.86C2674.47 867.411 2672.66 871.774 2669.44 874.992C2666.22 878.21 2661.86 880.02 2657.31 880.025H2517.92C2513.37 880.02 2509 878.21 2505.79 874.992C2502.57 871.774 2500.76 867.411 2500.75 862.86Z" fill="#636973"/>
<path d="M3563.8 269.47C3580.11 269.47 3593.32 256.255 3593.32 239.953C3593.32 223.651 3580.11 210.435 3563.8 210.435C3547.5 210.435 3534.28 223.651 3534.28 239.953C3534.28 256.255 3547.5 269.47 3563.8 269.47Z" fill="#F5F7FA"/>
<path d="M3563.8 387.11C3580.11 387.11 3593.32 373.895 3593.32 357.593C3593.32 341.291 3580.11 328.075 3563.8 328.075C3547.5 328.075 3534.28 341.291 3534.28 357.593C3534.28 373.895 3547.5 387.11 3563.8 387.11Z" fill="#F5F7FA"/>
<path d="M3563.8 504.75C3580.11 504.75 3593.32 491.535 3593.32 475.233C3593.32 458.931 3580.11 445.715 3563.8 445.715C3547.5 445.715 3534.28 458.931 3534.28 475.233C3534.28 491.535 3547.5 504.75 3563.8 504.75Z" fill="#F5F7FA"/>
<path d="M3563.8 622.391C3580.11 622.391 3593.32 609.175 3593.32 592.873C3593.32 576.571 3580.11 563.355 3563.8 563.355C3547.5 563.355 3534.28 576.571 3534.28 592.873C3534.28 609.175 3547.5 622.391 3563.8 622.391Z" fill="#F5F7FA"/>
<path d="M3440.56 269.47C3456.86 269.47 3470.08 256.255 3470.08 239.953C3470.08 223.651 3456.86 210.435 3440.56 210.435C3424.25 210.435 3411.04 223.651 3411.04 239.953C3411.04 256.255 3424.25 269.47 3440.56 269.47Z" fill="#F5F7FA"/>
<path d="M3440.56 387.11C3456.86 387.11 3470.08 373.895 3470.08 357.593C3470.08 341.291 3456.86 328.075 3440.56 328.075C3424.25 328.075 3411.04 341.291 3411.04 357.593C3411.04 373.895 3424.25 387.11 3440.56 387.11Z" fill="#F5F7FA"/>
<path d="M3440.56 504.75C3456.86 504.75 3470.08 491.535 3470.08 475.233C3470.08 458.931 3456.86 445.715 3440.56 445.715C3424.25 445.715 3411.04 458.931 3411.04 475.233C3411.04 491.535 3424.25 504.75 3440.56 504.75Z" fill="#F5F7FA"/>
<path d="M3440.56 622.391C3456.86 622.391 3470.08 609.175 3470.08 592.873C3470.08 576.571 3456.86 563.355 3440.56 563.355C3424.25 563.355 3411.04 576.571 3411.04 592.873C3411.04 609.175 3424.25 622.391 3440.56 622.391Z" fill="#F5F7FA"/>
<path d="M3317.31 269.47C3333.61 269.47 3346.83 256.255 3346.83 239.953C3346.83 223.651 3333.61 210.435 3317.31 210.435C3301.01 210.435 3287.79 223.651 3287.79 239.953C3287.79 256.255 3301.01 269.47 3317.31 269.47Z" fill="#F5F7FA"/>
<path d="M3317.31 387.11C3333.61 387.11 3346.83 373.895 3346.83 357.593C3346.83 341.291 3333.61 328.075 3317.31 328.075C3301.01 328.075 3287.79 341.291 3287.79 357.593C3287.79 373.895 3301.01 387.11 3317.31 387.11Z" fill="#F5F7FA"/>
<path d="M3317.31 504.75C3333.61 504.75 3346.83 491.535 3346.83 475.233C3346.83 458.931 3333.61 445.715 3317.31 445.715C3301.01 445.715 3287.79 458.931 3287.79 475.233C3287.79 491.535 3301.01 504.75 3317.31 504.75Z" fill="#F5F7FA"/>
<path d="M3317.31 622.391C3333.61 622.391 3346.83 609.175 3346.83 592.873C3346.83 576.571 3333.61 563.355 3317.31 563.355C3301.01 563.355 3287.79 576.571 3287.79 592.873C3287.79 609.175 3301.01 622.391 3317.31 622.391Z" fill="#F5F7FA"/>
<path d="M3194.07 269.47C3210.37 269.47 3223.59 256.255 3223.59 239.953C3223.59 223.651 3210.37 210.435 3194.07 210.435C3177.76 210.435 3164.55 223.651 3164.55 239.953C3164.55 256.255 3177.76 269.47 3194.07 269.47Z" fill="#F5F7FA"/>
<path d="M3194.07 387.11C3210.37 387.11 3223.59 373.895 3223.59 357.593C3223.59 341.291 3210.37 328.075 3194.07 328.075C3177.76 328.075 3164.55 341.291 3164.55 357.593C3164.55 373.895 3177.76 387.11 3194.07 387.11Z" fill="#F5F7FA"/>
<path d="M3194.07 504.75C3210.37 504.75 3223.59 491.535 3223.59 475.233C3223.59 458.931 3210.37 445.715 3194.07 445.715C3177.76 445.715 3164.55 458.931 3164.55 475.233C3164.55 491.535 3177.76 504.75 3194.07 504.75Z" fill="#F5F7FA"/>
<path d="M3194.07 622.391C3210.37 622.391 3223.59 609.175 3223.59 592.873C3223.59 576.571 3210.37 563.355 3194.07 563.355C3177.76 563.355 3164.55 576.571 3164.55 592.873C3164.55 609.175 3177.76 622.391 3194.07 622.391Z" fill="#F5F7FA"/>
<path d="M3070.82 269.47C3087.12 269.47 3100.34 256.255 3100.34 239.953C3100.34 223.651 3087.12 210.435 3070.82 210.435C3054.52 210.435 3041.3 223.651 3041.3 239.953C3041.3 256.255 3054.52 269.47 3070.82 269.47Z" fill="#F5F7FA"/>
<path d="M3070.82 387.11C3087.12 387.11 3100.34 373.895 3100.34 357.593C3100.34 341.291 3087.12 328.075 3070.82 328.075C3054.52 328.075 3041.3 341.291 3041.3 357.593C3041.3 373.895 3054.52 387.11 3070.82 387.11Z" fill="#F5F7FA"/>
<path d="M3070.82 504.75C3087.12 504.75 3100.34 491.535 3100.34 475.233C3100.34 458.931 3087.12 445.715 3070.82 445.715C3054.52 445.715 3041.3 458.931 3041.3 475.233C3041.3 491.535 3054.52 504.75 3070.82 504.75Z" fill="#F5F7FA"/>
<path d="M3070.82 622.391C3087.12 622.391 3100.34 609.175 3100.34 592.873C3100.34 576.571 3087.12 563.355 3070.82 563.355C3054.52 563.355 3041.3 576.571 3041.3 592.873C3041.3 609.175 3054.52 622.391 3070.82 622.391Z" fill="#F5F7FA"/>
<path d="M2947.58 269.47C2963.88 269.47 2977.1 256.255 2977.1 239.953C2977.1 223.651 2963.88 210.435 2947.58 210.435C2931.27 210.435 2918.06 223.651 2918.06 239.953C2918.06 256.255 2931.27 269.47 2947.58 269.47Z" fill="#F5F7FA"/>
<path d="M2947.58 387.11C2963.88 387.11 2977.1 373.895 2977.1 357.593C2977.1 341.291 2963.88 328.075 2947.58 328.075C2931.27 328.075 2918.06 341.291 2918.06 357.593C2918.06 373.895 2931.27 387.11 2947.58 387.11Z" fill="#F5F7FA"/>
<path d="M2947.58 504.75C2963.88 504.75 2977.1 491.535 2977.1 475.233C2977.1 458.931 2963.88 445.715 2947.58 445.715C2931.27 445.715 2918.06 458.931 2918.06 475.233C2918.06 491.535 2931.27 504.75 2947.58 504.75Z" fill="#F5F7FA"/>
<path d="M2947.58 622.391C2963.88 622.391 2977.1 609.175 2977.1 592.873C2977.1 576.571 2963.88 563.355 2947.58 563.355C2931.27 563.355 2918.06 576.571 2918.06 592.873C2918.06 609.175 2931.27 622.391 2947.58 622.391Z" fill="#F5F7FA"/>
<path d="M3066.5 1287.18C3064.08 1280.53 3063.09 1273.44 3063.6 1266.39C3064.11 1259.33 3066.1 1252.46 3069.45 1246.23C3072.79 1239.99 3077.42 1234.54 3083.02 1230.22C3088.63 1225.9 3095.08 1222.81 3101.96 1221.16C3104.14 1220.64 3106.35 1220.28 3108.58 1220.08L3219.52 1025.64L3191.5 977.52L3261.23 923.73L3314.58 997.819C3320.94 1006.73 3324.26 1017.45 3324.04 1028.39C3323.83 1039.33 3320.09 1049.91 3313.39 1058.57L3161.09 1253.53C3161.64 1255.08 3162.12 1256.65 3162.51 1258.25C3164.16 1265.13 3164.34 1272.28 3163.03 1279.24C3161.73 1286.19 3158.97 1292.79 3154.94 1298.61C3150.9 1304.42 3145.69 1309.31 3139.63 1312.97C3133.57 1316.63 3126.81 1318.96 3119.78 1319.82C3117.75 1320.08 3115.69 1320.21 3113.64 1320.21C3103.35 1320.18 3093.31 1316.99 3084.89 1311.09C3076.46 1305.18 3070.04 1296.84 3066.5 1287.18V1287.18Z" fill="#FFB8B8"/>
<path d="M2850.07 2244.04L2794.11 2244.04L2767.49 2028.19L2850.08 2028.2L2850.07 2244.04Z" fill="#FFB8B8"/>
<path d="M2754.14 2228.05H2862.06V2296H2686.18C2686.18 2287.07 2687.94 2278.24 2691.36 2269.99C2694.77 2261.75 2699.78 2254.26 2706.09 2247.95C2712.4 2241.64 2719.89 2236.63 2728.13 2233.22C2736.38 2229.8 2745.21 2228.05 2754.14 2228.05V2228.05Z" fill="#0B0C12"/>
<path d="M3311.1 2244.04L3255.14 2244.04L3228.51 2028.19L3311.11 2028.2L3311.1 2244.04Z" fill="#FFB8B8"/>
<path d="M3215.16 2228.05H3323.09V2296H3147.21C3147.21 2287.07 3148.97 2278.24 3152.38 2269.99C3155.8 2261.75 3160.8 2254.26 3167.11 2247.95C3173.42 2241.64 3180.91 2236.63 3189.16 2233.22C3197.4 2229.8 3206.24 2228.05 3215.16 2228.05V2228.05Z" fill="#0B0C12"/>
<path d="M3276.75 934.24L3151.11 981.981L3120.44 896.779C3116.36 885.465 3116.42 873.076 3120.6 861.801C3124.78 850.525 3132.81 841.09 3143.27 835.162V835.162C3153.85 829.165 3166.23 827.15 3178.17 829.48C3190.11 831.811 3200.82 838.334 3208.37 847.871L3276.75 934.24Z" fill="#6C63FF"/>
<path d="M2854.9 2069.22L2749.53 2045.19C2743.93 2043.91 2739.02 2040.55 2735.79 2035.79C2732.56 2031.03 2731.25 2025.23 2732.13 2019.54C2774.41 1751.57 2815.09 1594.64 2919.92 1395.35C2921.38 1391.63 2937.75 1316.21 2948.43 1266.24C2948.31 1260.74 2950.2 1255.38 2953.73 1251.16C2957.27 1246.94 2962.23 1244.15 2967.67 1243.31L3164.15 1213.08C3167.11 1212.05 3170.24 1211.58 3173.38 1211.69L3175.34 1212.06L3175.32 1213.99C3175.29 1215.99 3173.3 1216.29 3172.56 1216.41L3169.95 1216.81C3172.93 1218.2 3175.66 1220.06 3178.05 1222.32C3264.14 1325.86 3308.9 1665.25 3365.76 2040.19C3366.07 2043.23 3365.7 2046.31 3364.67 2049.19C3363.64 2052.07 3361.98 2054.69 3359.81 2056.84C3357.75 2059.09 3355.26 2060.89 3352.48 2062.15C3349.71 2063.4 3346.71 2064.08 3343.66 2064.14L3218.13 2067.21C3212.61 2067.33 3207.24 2065.44 3203.01 2061.9C3198.78 2058.36 3195.99 2053.4 3195.14 2047.95L3110.59 1559.34C3110.01 1555.52 3108.22 1551.99 3105.49 1549.26C3102.76 1546.52 3099.23 1544.73 3095.42 1544.14C3091.6 1543.56 3087.7 1544.2 3084.27 1545.98C3080.85 1547.77 3078.08 1550.6 3076.38 1554.06C3008.16 1692.98 2944.55 1813.11 2881.89 2052.8C2880.65 2057.66 2877.83 2061.97 2873.87 2065.04C2869.91 2068.12 2865.04 2069.8 2860.02 2069.8C2858.3 2069.8 2856.58 2069.61 2854.9 2069.22V2069.22Z" fill="#242833"/>
<path d="M2957.18 1271.82C2954.54 1269.95 2952.32 1267.54 2950.68 1264.75C2949.04 1261.96 2948.02 1258.85 2947.67 1255.63C2931.58 1105.41 2942.79 987.859 2981.93 896.248C2988.83 880.447 2999.21 866.414 3012.31 855.204C3025.41 843.994 3040.88 835.899 3057.56 831.526L3159.12 826.4L3159.64 826.654C3182.56 837.879 3201.25 856.19 3212.94 878.872C3224.63 901.555 3228.7 927.401 3224.55 952.579C3191.88 1038.68 3164.53 1128.32 3185.39 1200.64C3186.26 1203.66 3186.52 1206.83 3186.14 1209.95C3185.76 1213.08 3184.75 1216.09 3183.18 1218.82C3181.66 1221.45 3179.61 1223.75 3177.16 1225.56C3174.71 1227.37 3171.92 1228.67 3168.96 1229.36L2975.52 1275.37C2972.38 1276.12 2969.13 1276.19 2965.97 1275.58C2962.81 1274.96 2959.81 1273.69 2957.18 1271.82V1271.82Z" fill="#18A0FB"/>
<path d="M2913.46 1056.26L2718.67 902.593C2717.12 903.139 2715.54 903.605 2713.94 903.988C2707.07 905.596 2699.93 905.74 2692.99 904.41C2686.06 903.08 2679.48 900.306 2673.69 896.268C2667.86 892.227 2662.96 886.988 2659.32 880.9C2655.68 874.813 2653.38 868.018 2652.57 860.97C2651.27 849.702 2653.81 838.324 2659.78 828.681C2665.75 819.039 2674.81 811.697 2685.48 807.848C2692.14 805.459 2699.23 804.505 2706.28 805.046C2713.34 805.588 2720.2 807.614 2726.41 810.991C2732.63 814.369 2738.06 819.021 2742.36 824.644C2746.65 830.268 2749.71 836.734 2751.33 843.621C2751.83 845.804 2752.18 848.019 2752.37 850.249L2946.29 962.111L2994.54 934.33L3048 1004.31L2973.08 1057.71C2964.3 1063.91 2953.77 1067.12 2943.03 1066.86C2932.29 1066.6 2921.92 1062.88 2913.46 1056.26H2913.46Z" fill="#FFB8B8"/>
<path d="M3071.77 1026.11L2960.63 950.531L3012.86 876.556C3019.8 866.733 3029.98 859.678 3041.61 856.638C3053.25 853.598 3065.58 854.768 3076.44 859.941V859.941C3087.42 865.175 3096.17 874.162 3101.1 885.281C3106.03 896.399 3106.83 908.915 3103.34 920.569L3071.77 1026.11Z" fill="#18A0FB"/>
<path d="M3125.22 788.468C3187.14 788.468 3237.33 738.276 3237.33 676.362C3237.33 614.447 3187.14 564.255 3125.22 564.255C3063.3 564.255 3013.11 614.447 3013.11 676.362C3013.11 738.276 3063.3 788.468 3125.22 788.468Z" fill="#FFB8B8"/>
<path d="M3084.12 659.664C3055.3 679.385 3017.47 699.656 2988.04 678.655C2968.71 664.866 2962.62 639.331 2970.46 616.922C2984.55 576.625 3023.27 558.884 3060.3 545.286C3108.43 527.607 3160.83 513.544 3210.52 526.204C3260.21 538.864 3304.12 586.969 3295.15 637.452C3287.94 678.049 3249.64 711.829 3255.08 752.702C3260.55 793.837 3306.82 815.489 3347.66 822.841C3388.5 830.193 3434.21 832.555 3463.56 861.89C3501 899.313 3491.65 966.202 3456.42 1005.71C3421.19 1045.22 3368.02 1063.13 3316.49 1075.31C3248.23 1091.44 3174.4 1099.92 3109.57 1073.15C3044.74 1046.37 2994.29 974.307 3013.07 906.729C3021 878.184 3039.69 854.06 3057.75 830.574C3075.81 807.088 3094.1 782.529 3100.99 753.715C3106.73 729.703 3102.48 701.823 3086.55 683.811C3083.66 680.659 3081.84 676.669 3081.35 672.416C3080.86 668.163 3081.73 663.865 3083.84 660.138L3084.12 659.664Z" fill="#0B0C12"/>
</svg>
