<svg width="166" height="37" viewBox="0 0 166 37" fill="none" xmlns="http://www.w3.org/2000/svg">
<path d="M78.048 10.908V7.272H74.772V36.36H78.048V23.364C79.272 25.38 81.828 27.324 85.428 27.324C90.72 27.324 94.788 23.184 94.788 17.064C94.788 10.908 90.72 6.948 85.428 6.948C81.828 6.948 79.236 8.82 78.048 10.908ZM91.44 17.064C91.44 21.708 88.38 24.444 84.744 24.444C81.18 24.444 78.048 21.744 78.048 17.1C78.048 12.528 81.18 9.792 84.744 9.792C88.38 9.792 91.44 12.42 91.44 17.064Z" fill="#18A0FB"/>
<path d="M97.8761 17.064C97.8761 23.184 101.944 27.324 107.2 27.324C110.836 27.324 113.392 25.452 114.58 23.328V27H117.892V7.272H114.58V10.872C113.428 8.82 110.908 6.948 107.236 6.948C101.944 6.948 97.8761 10.908 97.8761 17.064ZM114.58 17.1C114.58 21.744 111.484 24.444 107.884 24.444C104.284 24.444 101.224 21.708 101.224 17.064C101.224 12.42 104.284 9.792 107.884 9.792C111.484 9.792 114.58 12.528 114.58 17.1Z" fill="#18A0FB"/>
<path d="M122.204 17.064C122.204 23.184 126.272 27.324 131.564 27.324C135.164 27.324 137.72 25.416 138.908 23.292V27.432C138.908 31.644 136.28 33.876 132.788 33.876C129.548 33.876 127.208 32.256 126.488 29.88H123.248C123.896 34.092 127.604 36.72 132.788 36.72C138.584 36.72 142.22 32.868 142.22 27.432V7.272H138.908V10.872C137.756 8.748 135.164 6.948 131.564 6.948C126.272 6.948 122.204 10.908 122.204 17.064ZM138.908 17.1C138.908 21.744 135.812 24.444 132.212 24.444C128.612 24.444 125.552 21.708 125.552 17.064C125.552 12.42 128.612 9.792 132.212 9.792C135.812 9.792 138.908 12.528 138.908 17.1Z" fill="#18A0FB"/>
<path d="M156.144 9.72C159.528 9.72 162.408 11.844 162.372 15.696H149.916C150.276 11.844 152.94 9.72 156.144 9.72ZM165.36 20.916H161.832C161.112 23.04 159.24 24.552 156.288 24.552C152.94 24.552 150.132 22.356 149.88 18.36H165.648C165.72 17.676 165.756 17.1 165.756 16.38C165.756 10.98 162.012 6.948 156.288 6.948C150.528 6.948 146.532 10.872 146.532 17.1C146.532 23.364 150.672 27.324 156.288 27.324C161.184 27.324 164.352 24.516 165.36 20.916Z" fill="#18A0FB"/>
<path d="M49.5642 6.17553C48.5296 8.21808 48.0123 10.7872 48.0123 13.883C48.0123 18.3191 49.0954 21.6223 51.2616 23.7925C53.4278 25.9308 56.6772 27 61.0096 27C62.7231 27 64.469 26.8723 66.2473 26.617C68.0255 26.3936 69.6097 26.0904 71 25.7074L69.7876 19.484C68.947 19.6436 68.1387 19.7872 67.3627 19.9149C66.5868 20.0425 65.8108 20.1383 65.0348 20.2021C64.2912 20.2659 63.5314 20.2979 62.7555 20.2979C61.3975 20.2979 60.2175 20.0585 59.2152 19.5798C58.2452 19.0691 57.5016 18.3351 56.9843 17.3776C56.4993 16.3883 56.2568 15.1436 56.2568 13.6436C56.2568 12.0798 56.4832 10.8032 56.9358 9.81382C57.4208 8.79255 58.1321 8.04255 59.0697 7.56382C60.0396 7.05319 61.2197 6.79787 62.61 6.79787C63.3213 6.79787 64.0487 6.82978 64.7924 6.89361C65.536 6.95744 66.2958 7.03723 67.0717 7.13297C67.8477 7.22872 68.6236 7.35638 69.3996 7.51595L70.515 1.00532C69.7391 0.781914 68.8661 0.606382 67.8962 0.478723C66.9262 0.319148 65.9078 0.207447 64.8409 0.143618C63.8062 0.0478726 62.7716 0 61.737 0C58.7625 0 56.2568 0.526595 54.22 1.57979C52.1831 2.60106 50.6312 4.13298 49.5642 6.17553Z" fill="#0B0C12"/>
<path d="M22.4434 0.38391C22.9359 0.221855 23.4609 0.111101 24.0184 0.0516487L26.7599 7.54804C26.3096 7.46054 25.8594 7.39209 25.4091 7.34271C24.8257 7.24673 24.2909 7.19873 23.8047 7.19873C22.962 7.19873 22.1031 7.34271 21.2279 7.63066C20.3528 7.88662 19.4128 8.36653 18.4081 9.07041V26.5874H10.4833V0.479892H17.6788V3.50337C18.5863 2.67151 19.4128 1.99963 20.1583 1.48772C20.9038 0.975807 21.6655 0.60787 22.4434 0.38391Z" fill="#0B0C12"/>
<path d="M48.9088 5.8128C47.8148 7.95585 47.2677 10.6514 47.2677 13.8995C47.2677 14.5017 47.2869 15.084 47.3253 15.6465L43.3857 26.5874H34.3427L24.6468 0H33.0786L39.1073 19.8206L44.4067 0.431932L52.769 0.527915L52.2644 1.92949C50.8639 2.92939 49.7454 4.22382 48.9088 5.8128Z" fill="#0B0C12"/>
<path d="M0.975363 19.7295C0.325121 20.4036 0 21.4468 0 22.8592C0 24.2395 0.325121 25.2827 0.975363 25.9889C1.65812 26.663 2.77978 27 4.34037 27C5.93346 27 7.05513 26.663 7.70537 25.9889C8.38812 25.2827 8.7295 24.2395 8.7295 22.8592C8.7295 21.4468 8.38812 20.4036 7.70537 19.7295C7.05513 19.0233 5.93346 18.6702 4.34037 18.6702C2.77978 18.6702 1.65812 19.0233 0.975363 19.7295Z" fill="#0B0C12"/>
</svg>
